<mxfile host="app.diagrams.net" agent="Mozilla/5.0 (Windows NT 10.0; Win64; x64) AppleWebKit/537.36 (KHTML, like Gecko) Chrome/131.0.0.0 Safari/537.36" version="24.9.0">
  <diagram name="Page-1" id="SRpFEiWn7jke4-lCNn84">
    <mxGraphModel dx="522" dy="965" grid="0" gridSize="10" guides="1" tooltips="1" connect="1" arrows="1" fold="1" page="0" pageScale="1" pageWidth="850" pageHeight="1100" math="0" shadow="0">
      <root>
        <mxCell id="0" />
        <mxCell id="1" parent="0" />
        <mxCell id="QQotNzGSOxzSwftyOqla-8" value="" style="edgeStyle=none;curved=1;rounded=0;orthogonalLoop=1;jettySize=auto;html=1;fontSize=12;startSize=8;endSize=8;" edge="1" parent="1" source="QQotNzGSOxzSwftyOqla-1" target="QQotNzGSOxzSwftyOqla-2">
          <mxGeometry relative="1" as="geometry" />
        </mxCell>
        <mxCell id="QQotNzGSOxzSwftyOqla-1" value="Начало" style="ellipse;whiteSpace=wrap;html=1;" vertex="1" parent="1">
          <mxGeometry x="100" y="-1" width="89" height="35" as="geometry" />
        </mxCell>
        <mxCell id="QQotNzGSOxzSwftyOqla-13" style="edgeStyle=none;curved=1;rounded=0;orthogonalLoop=1;jettySize=auto;html=1;fontSize=12;startSize=8;endSize=8;" edge="1" parent="1" source="QQotNzGSOxzSwftyOqla-2">
          <mxGeometry relative="1" as="geometry">
            <mxPoint x="144.5" y="127.60003662109375" as="targetPoint" />
          </mxGeometry>
        </mxCell>
        <mxCell id="QQotNzGSOxzSwftyOqla-19" style="edgeStyle=none;curved=1;rounded=0;orthogonalLoop=1;jettySize=auto;html=1;entryX=0.5;entryY=0;entryDx=0;entryDy=0;fontSize=12;startSize=8;endSize=8;exitX=1;exitY=0.75;exitDx=0;exitDy=0;" edge="1" parent="1" source="QQotNzGSOxzSwftyOqla-2" target="QQotNzGSOxzSwftyOqla-18">
          <mxGeometry relative="1" as="geometry">
            <Array as="points">
              <mxPoint x="310" y="145" />
              <mxPoint x="224" y="310" />
            </Array>
          </mxGeometry>
        </mxCell>
        <mxCell id="QQotNzGSOxzSwftyOqla-2" value="for j from 1 by 1 to n" style="shape=trapezoid;perimeter=trapezoidPerimeter;whiteSpace=wrap;html=1;fixedSize=1;" vertex="1" parent="1">
          <mxGeometry x="62" y="61" width="165" height="35" as="geometry" />
        </mxCell>
        <mxCell id="QQotNzGSOxzSwftyOqla-14" style="edgeStyle=none;curved=1;rounded=0;orthogonalLoop=1;jettySize=auto;html=1;exitX=0.5;exitY=1;exitDx=0;exitDy=0;entryX=0.5;entryY=0;entryDx=0;entryDy=0;fontSize=12;startSize=8;endSize=8;" edge="1" parent="1" source="QQotNzGSOxzSwftyOqla-4" target="QQotNzGSOxzSwftyOqla-5">
          <mxGeometry relative="1" as="geometry" />
        </mxCell>
        <mxCell id="QQotNzGSOxzSwftyOqla-4" value="l := Construct_W(x_list, j)(x) * y_list[j] / Construct_W(x_list, j)(x_list[j])" style="rounded=0;whiteSpace=wrap;html=1;" vertex="1" parent="1">
          <mxGeometry x="43" y="130" width="209" height="60" as="geometry" />
        </mxCell>
        <mxCell id="QQotNzGSOxzSwftyOqla-20" style="edgeStyle=none;curved=1;rounded=0;orthogonalLoop=1;jettySize=auto;html=1;exitX=0;exitY=0.5;exitDx=0;exitDy=0;entryX=0;entryY=0.5;entryDx=0;entryDy=0;fontSize=12;startSize=8;endSize=8;" edge="1" parent="1" source="QQotNzGSOxzSwftyOqla-5" target="QQotNzGSOxzSwftyOqla-2">
          <mxGeometry relative="1" as="geometry">
            <Array as="points">
              <mxPoint x="-44" y="203" />
            </Array>
          </mxGeometry>
        </mxCell>
        <mxCell id="QQotNzGSOxzSwftyOqla-5" value="sum := sum + l;&#xa;l := 1;" style="rounded=0;whiteSpace=wrap;html=1;" vertex="1" parent="1">
          <mxGeometry x="93.5" y="218" width="108" height="50" as="geometry" />
        </mxCell>
        <mxCell id="QQotNzGSOxzSwftyOqla-18" value="Конец" style="ellipse;whiteSpace=wrap;html=1;" vertex="1" parent="1">
          <mxGeometry x="98" y="325" width="99" height="41" as="geometry" />
        </mxCell>
      </root>
    </mxGraphModel>
  </diagram>
</mxfile>
